<?xml version="1.0" standalone="no"?>
<!DOCTYPE svg PUBLIC "-//W3C//DTD SVG 20010904//EN"
 "http://www.w3.org/TR/2001/REC-SVG-20010904/DTD/svg10.dtd">
<svg version="1.0" xmlns="http://www.w3.org/2000/svg"
 width="512.000000pt" height="512.000000pt" viewBox="0 0 512.000000 512.000000"
 preserveAspectRatio="xMidYMid meet">

<g transform="translate(0.000000,512.000000) scale(0.100000,-0.100000)"
fill="#000000" stroke="none">
<path d="M1910 4489 c-220 -12 -374 -28 -459 -50 -169 -42 -338 -158 -445
-305 -31 -42 -92 -149 -136 -238 -124 -251 -217 -362 -421 -506 -54 -39 -114
-89 -133 -113 -48 -59 -86 -144 -96 -219 -8 -58 1 -231 16 -282 29 -107 98
-222 162 -272 160 -125 264 -271 363 -507 60 -145 102 -209 199 -307 70 -70
287 -240 400 -312 521 -335 1284 -607 1980 -707 367 -53 637 -62 851 -27 308
50 483 186 546 426 21 82 22 251 1 340 -74 310 -71 290 -71 525 0 195 3 238
27 378 32 188 55 265 107 370 90 178 117 301 99 448 -18 153 -35 184 -175 323
-134 133 -152 161 -191 307 -61 229 -182 350 -449 451 -55 21 -125 51 -155 67
-202 106 -564 180 -1035 211 -180 11 -764 11 -985 -1z m1095 -74 c300 -25 516
-62 680 -114 l90 -29 -57 1 c-64 2 -90 -12 -72 -41 11 -18 26 -20 209 -42 201
-24 360 -89 471 -192 75 -71 118 -149 149 -272 33 -136 63 -184 192 -311 123
-120 144 -155 164 -269 22 -129 -5 -262 -86 -424 -56 -112 -88 -217 -114 -372
-58 -346 -53 -573 19 -869 54 -220 50 -351 -14 -486 -130 -276 -538 -363
-1236 -265 -966 136 -1957 561 -2403 1029 -99 105 -122 140 -177 277 -44 108
-100 209 -163 293 -26 35 -34 52 -23 48 46 -18 92 -19 106 -2 22 27 1 46 -71
65 -259 67 -400 271 -386 555 5 121 38 195 117 268 93 87 270 156 441 173 84
8 122 31 99 59 -12 15 -25 16 -85 11 -38 -4 -96 -13 -127 -20 -32 -7 -58 -11
-58 -9 0 3 23 31 52 62 73 80 147 197 216 343 33 69 78 152 100 185 107 158
279 275 470 319 169 40 1152 59 1497 29z"/>
<path d="M2190 4299 c-284 -33 -602 -178 -885 -404 -75 -60 -90 -78 -81 -101
11 -28 48 -13 119 45 278 229 619 376 916 397 65 4 151 1 266 -11 229 -24 812
-26 873 -4 26 10 30 45 5 53 -10 3 -189 5 -398 4 -297 -1 -408 3 -510 16 -140
17 -189 18 -305 5z"/>
<path d="M2133 4150 c-251 -55 -515 -190 -707 -363 -43 -39 -58 -58 -53 -70
12 -30 47 -18 120 42 206 168 416 271 655 323 176 38 439 26 767 -35 158 -29
488 -30 664 -2 139 22 294 16 390 -14 46 -14 69 -17 83 -10 40 21 10 51 -80
80 -99 31 -231 35 -387 13 -198 -28 -534 -27 -675 3 -173 36 -245 44 -470 49
-188 3 -226 1 -307 -16z"/>
<path d="M2240 4020 c-156 -16 -355 -71 -472 -131 -125 -63 -275 -190 -263
-221 13 -33 35 -26 103 31 239 201 522 277 932 252 163 -10 185 -10 199 4 27
27 2 49 -65 57 -111 12 -349 16 -434 8z"/>
<path d="M3430 3989 c-143 -7 -200 -17 -222 -37 -23 -20 -23 -29 2 -42 15 -8
56 -7 158 6 145 17 218 15 352 -12 140 -29 237 -90 326 -205 48 -63 67 -71 84
-38 9 17 6 29 -20 68 -38 60 -120 138 -180 173 -120 70 -282 98 -500 87z"/>
<path d="M2595 3891 c-4 -13 8 -40 35 -82 22 -34 45 -79 50 -98 41 -153 40
-151 60 -148 38 6 42 20 26 96 -27 128 -96 251 -142 251 -13 0 -25 -8 -29 -19z"/>
<path d="M3316 3841 c-47 -51 -101 -255 -78 -290 13 -19 40 -7 50 21 75 207
91 266 71 279 -20 12 -24 11 -43 -10z"/>
<path d="M1966 3660 c-257 -41 -453 -158 -431 -259 18 -84 119 -102 295 -54
93 25 122 28 245 28 126 -1 148 -4 220 -29 44 -15 112 -47 151 -72 81 -50 120
-55 171 -24 69 42 85 114 38 176 -64 84 -242 188 -375 218 -85 19 -240 27
-314 16z m484 -156 c81 -42 160 -116 160 -149 0 -14 -11 -32 -26 -44 l-27 -21
-44 26 c-79 46 -156 82 -214 98 l-57 17 19 49 c10 28 19 61 19 74 l0 24 53
-20 c28 -11 81 -35 117 -54z m-803 -79 c10 -30 9 -35 -5 -35 -35 0 -47 16 -34
44 16 35 27 33 39 -9z"/>
<path d="M3664 3605 c-113 -24 -267 -100 -413 -203 l-64 -45 -55 18 c-53 16
-56 16 -69 -1 -20 -27 -16 -34 30 -54 94 -42 120 -85 132 -215 11 -130 58
-190 175 -225 82 -24 104 -52 91 -111 -19 -82 -62 -129 -156 -169 -78 -33
-140 -38 -175 -11 -16 11 -41 21 -55 21 -62 0 -6 -87 67 -105 39 -10 153 12
207 40 120 61 181 141 181 239 0 94 -29 128 -138 161 -93 28 -121 67 -129 179
l-6 71 124 42 c176 59 250 68 394 48 171 -23 234 0 254 94 36 169 -154 279
-395 226z m251 -81 c45 -24 71 -56 80 -101 5 -27 2 -37 -20 -59 -21 -21 -32
-25 -57 -20 -17 3 -75 9 -130 13 l-99 6 6 42 c6 37 -3 71 -33 127 -5 11 47 16
134 14 58 -2 91 -8 119 -22z"/>
<path d="M1384 3496 c-28 -13 -60 -36 -72 -51 -22 -27 -22 -27 -2 -55 21 -30
117 -74 147 -68 10 2 19 13 21 25 3 19 -6 27 -50 46 l-53 24 50 24 c51 24 69
54 43 70 -19 12 -27 11 -84 -15z"/>
<path d="M4228 3463 c-53 -5 -78 -25 -62 -51 9 -14 32 -17 135 -18 182 -3 277
-36 354 -126 51 -60 70 -131 69 -258 0 -87 -4 -114 -23 -155 -31 -71 -83 -119
-160 -151 -36 -15 -75 -36 -86 -46 l-20 -19 20 -15 c26 -19 62 -13 142 26 153
75 226 243 194 447 -17 107 -46 176 -101 236 -99 109 -237 148 -462 130z"/>
<path d="M746 3394 c-132 -32 -221 -103 -275 -219 -43 -91 -56 -157 -56 -290
1 -101 4 -129 24 -178 39 -100 188 -228 227 -196 25 21 15 46 -28 72 -106 62
-150 144 -156 287 -7 178 46 319 150 395 61 46 130 68 253 82 57 6 71 12 73
27 2 10 -2 22 -10 27 -20 13 -136 9 -202 -7z"/>
<path d="M2010 3332 c-8 -2 -41 -29 -72 -59 -69 -65 -140 -99 -233 -112 -107
-15 -205 1 -410 71 -158 53 -192 62 -276 66 -192 9 -306 -61 -370 -227 -34
-88 -38 -252 -7 -355 25 -87 47 -111 74 -84 16 16 16 20 0 71 -54 173 -32 348
57 445 101 108 213 113 491 21 202 -68 254 -79 372 -79 107 0 182 16 244 52
57 34 160 140 160 165 0 25 -9 32 -30 25z"/>
<path d="M4410 3315 c-20 -24 -2 -47 51 -66 69 -26 114 -76 138 -154 36 -117
24 -164 -59 -237 -85 -74 -48 -122 42 -54 88 68 118 151 94 265 -24 115 -74
189 -155 230 -57 29 -96 35 -111 16z"/>
<path d="M4130 3165 c-19 -9 -55 -33 -80 -54 -86 -72 -128 -79 -200 -31 -49
33 -87 39 -97 14 -8 -21 39 -68 93 -94 83 -39 155 -21 249 60 25 22 58 43 73
47 53 15 146 6 225 -21 138 -49 165 1 32 60 -76 35 -237 45 -295 19z"/>
<path d="M1082 3127 c-6 -7 -16 -34 -22 -61 -22 -99 -74 -156 -168 -181 -105
-29 -123 -45 -87 -75 13 -11 29 -10 85 2 l70 16 72 -140 c312 -609 753 -985
1318 -1121 192 -47 428 -74 835 -98 610 -35 1017 75 1130 305 68 138 83 563
30 821 -29 137 -85 319 -106 340 -19 19 -21 19 -34 2 -7 -10 -18 -45 -23 -77
-29 -161 -157 -305 -331 -371 -136 -51 -445 -94 -616 -86 -281 15 -781 111
-1126 217 -255 78 -413 140 -699 275 -102 48 -208 98 -236 111 -50 23 -51 25
-44 57 11 55 -20 98 -48 64z m144 -226 c66 -32 177 -84 248 -117 l129 -58 -5
-106 c-3 -59 -11 -117 -18 -129 -10 -20 -17 -22 -53 -17 -70 11 -157 43 -277
104 l-115 57 -47 90 c-73 142 -72 135 -26 189 22 25 41 46 43 46 1 0 56 -26
121 -59z m838 -335 l228 -71 -7 -69 c-16 -161 -63 -244 -133 -231 -68 13 -219
67 -317 114 -108 51 -147 87 -165 149 -11 41 -13 147 -4 203 l6 37 82 -31 c44
-17 184 -62 310 -101z m2174 52 c54 -130 80 -270 58 -307 -12 -19 -86 -51
-118 -51 -15 0 -30 6 -35 12 -4 7 -26 66 -49 132 l-40 119 43 40 c23 21 55 59
70 83 16 24 31 44 35 44 3 0 20 -33 36 -72z m-215 -205 c34 -89 51 -164 44
-195 -5 -17 -25 -35 -66 -57 -77 -41 -96 -40 -110 2 -22 67 -61 240 -56 246 6
6 144 68 156 70 3 1 18 -29 32 -66z m-2638 35 c93 -24 195 -96 195 -139 0 -19
-29 -137 -46 -188 -3 -10 -16 -3 -45 25 -70 67 -239 292 -239 316 0 10 69 3
135 -14z m1254 -30 l264 -52 -6 -95 c-6 -106 -36 -204 -67 -221 -68 -36 -400
47 -484 121 l-41 36 17 54 c10 30 23 89 29 132 6 42 14 77 18 77 3 0 125 -23
270 -52z m1148 -128 c26 -103 29 -172 7 -194 -8 -9 -47 -25 -86 -37 -60 -19
-85 -21 -162 -15 -50 3 -103 9 -118 12 l-27 6 -3 134 c-2 74 -1 134 2 135 3 0
73 11 155 23 219 34 206 38 232 -64z m-469 35 c14 -5 17 -241 3 -263 -24 -38
-256 -66 -341 -42 -61 17 -61 19 -39 90 11 36 22 101 25 145 3 44 7 85 9 90 2
10 307 -9 343 -20z m-1521 -74 c156 -68 316 -154 355 -189 26 -23 38 -43 38
-61 0 -33 -57 -172 -93 -228 l-27 -42 -45 20 c-121 53 -300 172 -403 265 l-42
39 35 108 c19 59 37 112 40 117 12 19 54 10 142 -29z m2497 -288 c-13 -104
-43 -181 -84 -218 l-23 -20 8 30 c4 17 10 68 14 114 6 77 9 85 39 112 45 40
53 37 46 -18z m-1867 27 c89 -15 228 -57 300 -91 86 -41 92 -63 63 -207 -12
-59 -25 -111 -30 -115 -19 -20 -380 43 -525 92 -47 16 -88 31 -91 34 -3 3 15
42 39 88 25 46 53 110 63 141 14 48 22 58 43 61 48 7 76 7 138 -3z m1713 -124
c0 -42 -26 -160 -42 -192 -9 -19 -33 -35 -87 -56 -40 -16 -75 -27 -76 -26 -2
2 11 37 27 78 23 55 30 90 30 136 -1 69 10 80 85 94 52 9 63 3 63 -34z m-972
-11 c85 -26 88 -33 61 -182 -12 -70 -25 -131 -28 -135 -5 -6 -361 19 -368 25
-1 2 4 27 13 57 8 30 17 93 21 138 6 78 8 84 32 94 78 30 175 31 269 3z m359
-10 c37 -14 75 -33 85 -42 26 -24 22 -94 -11 -183 l-27 -75 -147 -3 c-135 -2
-147 -1 -147 15 0 37 39 243 49 262 31 56 94 65 198 26z m390 -8 c23 -23 9
-90 -37 -186 -29 -59 -45 -82 -62 -86 -25 -5 -148 -25 -160 -25 -4 0 5 33 18
73 21 59 25 84 20 139 -4 61 -3 69 15 79 56 30 179 34 206 6z"/>
<path d="M2525 2920 c-81 -34 -119 -72 -135 -131 -30 -110 35 -198 138 -186
92 10 93 67 1 67 -65 0 -83 19 -76 79 6 55 32 80 126 119 70 30 96 56 71 72
-24 16 -51 11 -125 -20z"/>
<path d="M2285 2844 c-55 -43 -121 -67 -193 -70 -80 -4 -92 -8 -92 -29 0 -30
72 -47 87 -21 5 8 33 15 73 18 98 8 201 65 186 103 -7 19 -35 19 -61 -1z"/>
<path d="M2735 2784 c-47 -24 -65 -45 -65 -75 0 -39 13 -43 59 -19 51 25 81
25 132 0 45 -24 79 -19 79 11 0 25 -32 57 -83 80 -51 23 -83 24 -122 3z"/>
<path d="M3617 2753 c-27 -26 50 -110 121 -131 77 -23 142 -8 142 33 0 15 -42
28 -65 19 -24 -10 -98 22 -130 56 -27 29 -54 38 -68 23z"/>
<path d="M1266 1734 c-25 -24 -7 -45 116 -132 548 -386 1114 -588 1768 -632
154 -10 270 -5 270 11 0 5 73 9 163 9 189 0 302 12 445 46 126 31 207 67 290
128 70 52 142 152 142 197 0 60 -38 47 -79 -26 -81 -144 -246 -232 -526 -281
-121 -22 -568 -30 -747 -15 -630 55 -1139 242 -1685 620 -73 50 -134 91 -137
91 -2 0 -12 -7 -20 -16z"/>
<path d="M1531 1741 c-32 -21 -2 -56 115 -130 403 -257 893 -431 1376 -487
206 -24 516 -15 683 19 145 30 228 57 317 104 87 46 198 146 198 179 0 33 -39
32 -71 -2 -61 -67 -213 -146 -341 -178 -143 -35 -212 -41 -488 -40 -246 1
-292 3 -436 27 -436 71 -821 213 -1221 450 -61 37 -113 67 -115 67 -2 0 -9 -4
-17 -9z"/>
<path d="M2963 1357 c-11 -18 10 -45 40 -51 68 -14 275 -18 361 -7 92 11 119
23 114 50 -3 13 -35 15 -257 16 -139 0 -255 -3 -258 -8z"/>
</g>
</svg>
